<?xml version="1.0" standalone="no"?>
<!DOCTYPE svg PUBLIC "-//W3C//DTD SVG 20010904//EN"
 "http://www.w3.org/TR/2001/REC-SVG-20010904/DTD/svg10.dtd">
<svg version="1.0" xmlns="http://www.w3.org/2000/svg"
 width="700.000000pt" height="700.000000pt" viewBox="0 0 700.000000 700.000000"
 preserveAspectRatio="xMidYMid meet">
<metadata>
Created by potrace 1.14, written by Peter Selinger 2001-2017
</metadata>
<g transform="translate(0.000000,700.000000) scale(0.100000,-0.100000)"
fill="#000000" stroke="none">
<path d="M3858 6513 c-74 -24 -312 -88 -358 -97 -14 -3 -61 -12 -105 -20 -44
-9 -98 -18 -120 -21 -22 -4 -47 -8 -55 -10 -8 -2 -42 -7 -75 -11 -33 -3 -62
-8 -65 -9 -3 -2 -41 -6 -85 -10 -44 -4 -88 -9 -97 -10 -9 -2 -54 -7 -100 -10
-46 -4 -99 -8 -118 -10 -79 -8 -396 -18 -555 -18 -279 0 -536 12 -795 39 -325
33 -687 104 -918 179 -86 28 -138 31 -185 11 -39 -16 -80 -60 -95 -101 -10
-27 -47 -189 -58 -255 -2 -14 -6 -34 -9 -46 -3 -12 -7 -39 -10 -60 -4 -21 -8
-50 -10 -64 -3 -14 -7 -50 -11 -80 -3 -30 -7 -65 -9 -78 -13 -79 -20 -238 -20
-452 0 -324 13 -478 60 -745 8 -44 17 -95 20 -113 3 -19 23 -102 45 -185 219
-852 685 -1511 1287 -1816 95 -48 268 -114 327 -125 15 -3 35 -7 45 -11 96
-30 419 -42 561 -21 338 52 682 232 956 502 91 89 118 118 204 220 150 175
359 540 463 809 48 125 138 405 151 475 3 14 14 63 24 110 19 81 35 168 47
255 4 22 8 47 10 55 3 8 7 53 11 100 3 47 8 88 10 91 6 10 17 266 17 394 0
122 -11 368 -18 395 -2 8 -6 47 -10 85 -11 118 -54 370 -86 502 -38 153 -125
203 -271 156z m-2524 -1257 c119 -35 225 -136 287 -272 68 -150 30 -232 -118
-252 -82 -11 -317 -5 -377 9 -226 52 -340 231 -237 371 52 71 147 126 247 144
16 3 30 6 31 8 10 10 124 4 167 -8z m1787 -3 c299 -69 366 -333 118 -467 -82
-45 -158 -58 -339 -59 -178 0 -233 10 -277 47 -24 21 -28 33 -30 79 -1 64 9
100 53 177 63 110 161 196 257 225 56 17 141 16 218 -2z m-1716 -1298 c118
-86 339 -161 535 -182 227 -24 540 11 695 76 92 40 149 69 200 105 78 55 90
59 114 38 38 -33 51 -225 25 -364 -51 -269 -224 -496 -474 -620 -195 -97 -439
-112 -654 -42 -203 67 -382 218 -489 415 -90 164 -123 378 -87 556 18 83 42
87 135 18z"/>
<path d="M6649 4646 c-5 -6 -231 -74 -261 -80 -13 -2 -41 -9 -63 -14 -22 -6
-53 -13 -70 -16 -16 -3 -73 -14 -125 -25 -52 -11 -116 -22 -142 -25 -26 -3
-58 -8 -70 -11 -13 -2 -43 -7 -68 -10 -25 -2 -79 -9 -120 -14 -41 -5 -115 -13
-165 -16 -49 -4 -101 -9 -115 -10 -137 -17 -639 -23 -911 -12 l-166 7 -28
-113 c-60 -248 -177 -563 -296 -798 -32 -64 -59 -118 -59 -120 0 -2 60 -4 133
-4 194 -1 234 -11 273 -70 58 -89 -69 -331 -220 -420 -128 -75 -321 -60 -457
36 l-26 19 -54 -63 c-72 -83 -232 -243 -294 -292 -27 -22 -59 -48 -70 -58 -31
-29 -213 -149 -282 -187 -35 -19 -63 -41 -63 -50 0 -20 78 -242 125 -355 48
-116 131 -283 192 -386 26 -44 53 -88 58 -98 72 -122 225 -312 364 -451 215
-215 403 -337 701 -456 49 -20 214 -61 280 -69 30 -4 66 -9 80 -11 32 -5 264
-4 310 1 459 50 899 317 1249 759 208 263 390 610 507 966 39 116 109 382 119
445 3 22 10 56 15 75 5 19 11 55 14 80 3 25 8 54 10 65 2 11 7 49 11 85 4 36
8 67 10 70 18 30 26 632 11 810 -18 217 -57 465 -100 634 -28 107 -50 141
-111 171 -30 14 -115 21 -126 11z m-730 -1285 c167 -58 258 -181 222 -301 -48
-160 -341 -266 -516 -186 -110 50 -212 158 -253 269 -40 107 -33 172 22 207
51 31 102 37 291 35 147 -2 179 -5 234 -24z m-833 -989 c399 -101 677 -469
657 -871 -8 -177 -37 -215 -120 -156 -121 86 -258 143 -438 181 -161 34 -395
38 -569 9 -57 -10 -64 -11 -149 -35 -128 -35 -195 -65 -305 -137 -79 -52 -84
-54 -106 -40 -28 19 -37 58 -41 197 -7 232 77 444 246 620 116 121 307 219
476 246 21 3 39 7 41 9 12 11 239 -6 308 -23z"/>
</g>
</svg>
