<svg xmlns="http://www.w3.org/2000/svg" xmlns:xlink="http://www.w3.org/1999/xlink" width="500" zoomAndPan="magnify" viewBox="0 0 375 374.999991" height="500" preserveAspectRatio="xMidYMid meet" version="1.0"><defs><g/><clipPath id="45811cd761"><path d="M 81.375 37.5 L 293.625 37.5 L 293.625 249.75 L 81.375 249.75 Z M 81.375 37.5 " clip-rule="nonzero"/></clipPath></defs><rect x="-37.5" width="450" fill="#ffffff" y="-37.499999" height="449.999989" fill-opacity="1"/><rect x="-37.5" width="450" fill="#ffffff" y="-37.499999" height="449.999989" fill-opacity="1"/><g clip-path="url(#45811cd761)"><path fill="#3e3b34" d="M 81.378906 143.625 C 81.378906 157.789062 92.898438 169.308594 107.0625 169.308594 L 161.828125 169.308594 L 161.828125 224.066406 C 161.828125 238.230469 173.34375 249.75 187.507812 249.75 C 201.675781 249.75 213.191406 238.230469 213.191406 224.066406 L 213.191406 169.308594 L 267.9375 169.308594 C 282.101562 169.308594 293.621094 157.789062 293.621094 143.625 C 293.621094 129.460938 282.101562 117.941406 267.9375 117.941406 L 213.191406 117.941406 L 213.191406 63.183594 C 213.191406 49.019531 201.675781 37.5 187.507812 37.5 C 173.34375 37.5 161.828125 49.019531 161.828125 63.183594 L 161.828125 117.941406 L 107.0625 117.941406 C 92.898438 117.941406 81.378906 129.460938 81.378906 143.625 Z M 166.105469 126.503906 C 168.472656 126.503906 170.386719 124.585938 170.386719 122.222656 L 170.386719 63.183594 C 170.386719 53.742188 178.066406 46.0625 187.507812 46.0625 C 196.953125 46.0625 204.628906 53.738281 204.628906 63.183594 L 204.628906 122.222656 C 204.628906 124.585938 206.546875 126.503906 208.910156 126.503906 L 267.9375 126.503906 C 277.382812 126.503906 285.058594 134.183594 285.058594 143.625 C 285.058594 153.070312 277.382812 160.75 267.9375 160.75 L 208.910156 160.75 C 206.546875 160.75 204.628906 162.667969 204.628906 165.027344 L 204.628906 224.066406 C 204.628906 233.511719 196.953125 241.191406 187.507812 241.191406 C 178.066406 241.191406 170.386719 233.511719 170.386719 224.066406 L 170.386719 165.027344 C 170.386719 162.664062 168.472656 160.75 166.105469 160.75 L 107.0625 160.75 C 97.621094 160.75 89.941406 153.070312 89.941406 143.625 C 89.941406 134.183594 97.621094 126.503906 107.0625 126.503906 Z M 166.105469 126.503906 " fill-opacity="1" fill-rule="nonzero"/></g><g fill="#3e3b34" fill-opacity="1"><g transform="translate(147.164906, 322.642283)"><g><path d="M 24.421875 0 L 17.703125 0 L 17.703125 -12.5 L 9.109375 -12.5 L 9.109375 0 L 2.375 0 L 2.375 -26.40625 C 2.375 -28.59375 2.90625 -30.398438 3.96875 -31.828125 C 5.03125 -33.265625 6.40625 -34.351562 8.09375 -35.09375 C 9.78125 -35.84375 11.550781 -36.21875 13.40625 -36.21875 C 15.363281 -36.21875 17.175781 -35.851562 18.84375 -35.125 C 20.507812 -34.40625 21.851562 -33.316406 22.875 -31.859375 C 23.90625 -30.410156 24.421875 -28.59375 24.421875 -26.40625 Z M 9.109375 -19.125 L 17.703125 -19.0625 L 17.703125 -24.28125 C 17.703125 -27.957031 16.269531 -29.796875 13.40625 -29.796875 C 12.15625 -29.796875 11.125 -29.335938 10.3125 -28.421875 C 9.507812 -27.515625 9.109375 -26.117188 9.109375 -24.234375 Z M 9.109375 -19.125 "/></g></g></g><g fill="#3e3b34" fill-opacity="1"><g transform="translate(173.918745, 322.642283)"><g><path d="M 2.984375 0 L 2.984375 -35.40625 L 11.375 -35.40625 C 13.84375 -35.40625 15.894531 -35.082031 17.53125 -34.4375 C 19.164062 -33.800781 20.460938 -32.96875 21.421875 -31.9375 C 22.378906 -30.90625 23.09375 -29.789062 23.5625 -28.59375 C 24.039062 -27.40625 24.351562 -26.242188 24.5 -25.109375 C 24.65625 -23.984375 24.734375 -23.015625 24.734375 -22.203125 L 24.734375 -11.53125 C 24.734375 -10.144531 24.488281 -8.769531 24 -7.40625 C 23.507812 -6.039062 22.800781 -4.800781 21.875 -3.6875 C 20.945312 -2.570312 19.832031 -1.675781 18.53125 -1 C 17.238281 -0.332031 15.78125 0 14.15625 0 Z M 9.5625 -6.265625 L 13.046875 -6.265625 C 14.898438 -6.265625 16.210938 -6.820312 16.984375 -7.9375 C 17.765625 -9.050781 18.15625 -10.804688 18.15625 -13.203125 L 18.15625 -22.109375 C 18.15625 -23.785156 17.882812 -25.144531 17.34375 -26.1875 C 16.800781 -27.238281 16.117188 -28 15.296875 -28.46875 C 14.472656 -28.945312 13.585938 -29.1875 12.640625 -29.1875 L 9.5625 -29.1875 Z M 9.5625 -6.265625 "/></g></g></g><g fill="#3e3b34" fill-opacity="1"><g transform="translate(200.874886, 322.642283)"><g><path d="M 2.984375 0 L 2.984375 -35.40625 L 11.375 -35.40625 C 13.84375 -35.40625 15.894531 -35.082031 17.53125 -34.4375 C 19.164062 -33.800781 20.460938 -32.96875 21.421875 -31.9375 C 22.378906 -30.90625 23.09375 -29.789062 23.5625 -28.59375 C 24.039062 -27.40625 24.351562 -26.242188 24.5 -25.109375 C 24.65625 -23.984375 24.734375 -23.015625 24.734375 -22.203125 L 24.734375 -11.53125 C 24.734375 -10.144531 24.488281 -8.769531 24 -7.40625 C 23.507812 -6.039062 22.800781 -4.800781 21.875 -3.6875 C 20.945312 -2.570312 19.832031 -1.675781 18.53125 -1 C 17.238281 -0.332031 15.78125 0 14.15625 0 Z M 9.5625 -6.265625 L 13.046875 -6.265625 C 14.898438 -6.265625 16.210938 -6.820312 16.984375 -7.9375 C 17.765625 -9.050781 18.15625 -10.804688 18.15625 -13.203125 L 18.15625 -22.109375 C 18.15625 -23.785156 17.882812 -25.144531 17.34375 -26.1875 C 16.800781 -27.238281 16.117188 -28 15.296875 -28.46875 C 14.472656 -28.945312 13.585938 -29.1875 12.640625 -29.1875 L 9.5625 -29.1875 Z M 9.5625 -6.265625 "/></g></g></g></svg>