<svg xmlns="http://www.w3.org/2000/svg" xmlns:xlink="http://www.w3.org/1999/xlink" width="500" zoomAndPan="magnify" viewBox="0 0 375 374.999991" height="500" preserveAspectRatio="xMidYMid meet" version="1.0"><defs><g/></defs><rect x="-37.5" width="450" fill="#ffffff" y="-37.499999" height="449.999989" fill-opacity="1"/><rect x="-37.5" width="450" fill="#ffffff" y="-37.499999" height="449.999989" fill-opacity="1"/><path fill="#3e3b34" d="M 239.613281 219.753906 C 232.921875 219.753906 226.628906 217.144531 221.894531 212.410156 L 187.5 178.019531 L 153.105469 212.410156 C 148.375 217.144531 142.082031 219.753906 135.386719 219.753906 C 128.691406 219.753906 122.402344 217.144531 117.667969 212.410156 C 112.9375 207.683594 110.328125 201.390625 110.328125 194.695312 C 110.328125 188 112.9375 181.710938 117.671875 176.976562 L 152.0625 142.582031 L 119.753906 110.269531 C 115.023438 105.539062 112.414062 99.246094 112.414062 92.550781 C 112.414062 85.859375 115.023438 79.566406 119.753906 74.835938 C 124.484375 70.105469 130.777344 67.496094 137.472656 67.496094 C 144.167969 67.496094 150.460938 70.105469 155.191406 74.835938 L 187.5 107.148438 L 219.808594 74.839844 C 224.539062 70.105469 230.828125 67.496094 237.527344 67.496094 C 244.222656 67.496094 250.515625 70.105469 255.242188 74.839844 C 259.972656 79.566406 262.582031 85.859375 262.582031 92.554688 C 262.582031 99.25 259.972656 105.539062 255.242188 110.273438 L 222.9375 142.582031 L 257.328125 176.976562 C 262.058594 181.707031 264.667969 187.996094 264.667969 194.695312 C 264.667969 201.390625 262.058594 207.679688 257.328125 212.410156 C 252.601562 217.144531 246.308594 219.753906 239.613281 219.753906 Z M 187.5 163.785156 C 189.007812 163.785156 190.515625 164.359375 191.667969 165.511719 L 230.234375 204.074219 C 232.746094 206.582031 236.070312 207.960938 239.613281 207.960938 C 243.160156 207.960938 246.488281 206.582031 248.992188 204.074219 C 251.503906 201.566406 252.878906 198.238281 252.878906 194.695312 C 252.878906 191.152344 251.503906 187.820312 248.992188 185.316406 L 210.433594 146.75 C 208.132812 144.449219 208.132812 140.714844 210.433594 138.414062 L 246.910156 101.933594 C 249.421875 99.425781 250.792969 96.097656 250.792969 92.550781 C 250.792969 89.007812 249.417969 85.679688 246.910156 83.171875 C 244.402344 80.664062 241.074219 79.285156 237.527344 79.285156 C 233.984375 79.285156 230.65625 80.667969 228.15625 83.171875 L 191.667969 119.652344 C 189.367188 121.953125 185.636719 121.953125 183.332031 119.652344 L 146.847656 83.175781 C 144.34375 80.667969 141.015625 79.289062 137.472656 79.289062 C 133.925781 79.289062 130.597656 80.667969 128.089844 83.175781 C 125.582031 85.683594 124.203125 89.007812 124.203125 92.554688 C 124.203125 96.101562 125.585938 99.425781 128.085938 101.9375 L 164.566406 138.417969 C 166.867188 140.71875 166.867188 144.449219 164.566406 146.753906 L 126.007812 185.316406 C 123.5 187.824219 122.121094 191.152344 122.121094 194.699219 C 122.121094 198.238281 123.503906 201.570312 126.007812 204.078125 C 128.515625 206.585938 131.84375 207.964844 135.386719 207.964844 C 138.929688 207.964844 142.261719 206.582031 144.765625 204.078125 L 183.335938 165.515625 C 184.484375 164.359375 185.992188 163.785156 187.5 163.785156 Z M 187.5 163.785156 " fill-opacity="1" fill-rule="nonzero"/><g fill="#3e3b34" fill-opacity="1"><g transform="translate(107.259533, 322.642283)"><g><path d="M 2.984375 0 L 2.984375 -35.40625 L 11.375 -35.40625 C 13.84375 -35.40625 15.894531 -35.082031 17.53125 -34.4375 C 19.164062 -33.800781 20.460938 -32.96875 21.421875 -31.9375 C 22.378906 -30.90625 23.09375 -29.789062 23.5625 -28.59375 C 24.039062 -27.40625 24.351562 -26.242188 24.5 -25.109375 C 24.65625 -23.984375 24.734375 -23.015625 24.734375 -22.203125 L 24.734375 -11.53125 C 24.734375 -10.144531 24.488281 -8.769531 24 -7.40625 C 23.507812 -6.039062 22.800781 -4.800781 21.875 -3.6875 C 20.945312 -2.570312 19.832031 -1.675781 18.53125 -1 C 17.238281 -0.332031 15.78125 0 14.15625 0 Z M 9.5625 -6.265625 L 13.046875 -6.265625 C 14.898438 -6.265625 16.210938 -6.820312 16.984375 -7.9375 C 17.765625 -9.050781 18.15625 -10.804688 18.15625 -13.203125 L 18.15625 -22.109375 C 18.15625 -23.785156 17.882812 -25.144531 17.34375 -26.1875 C 16.800781 -27.238281 16.117188 -28 15.296875 -28.46875 C 14.472656 -28.945312 13.585938 -29.1875 12.640625 -29.1875 L 9.5625 -29.1875 Z M 9.5625 -6.265625 "/></g></g></g><g fill="#3e3b34" fill-opacity="1"><g transform="translate(134.215674, 322.642283)"><g><path d="M 0.5625 -16.34375 L 2.28125 -22 L 4.25 -21.390625 L 4.25 -35.40625 L 23.171875 -35.40625 L 23.171875 -29.390625 L 10.828125 -29.390625 L 10.828125 -19.78125 L 25.484375 -15.828125 L 23.765625 -10.0625 L 10.828125 -13.609375 L 10.828125 -6.46875 L 25.390625 -6.46875 L 25.390625 0 L 4.25 0 L 4.25 -15.171875 Z M 0.5625 -16.34375 "/></g></g></g><g fill="#3e3b34" fill-opacity="1"><g transform="translate(161.323543, 322.642283)"><g><path d="M 3.03125 -35.40625 L 9.609375 -35.40625 L 9.609375 -6.46875 L 23.46875 -6.46875 L 23.46875 0 L 3.03125 0 Z M 3.03125 -35.40625 "/></g></g></g><g fill="#3e3b34" fill-opacity="1"><g transform="translate(185.194651, 322.642283)"><g><path d="M 0.5625 -16.34375 L 2.28125 -22 L 4.25 -21.390625 L 4.25 -35.40625 L 23.171875 -35.40625 L 23.171875 -29.390625 L 10.828125 -29.390625 L 10.828125 -19.78125 L 25.484375 -15.828125 L 23.765625 -10.0625 L 10.828125 -13.609375 L 10.828125 -6.46875 L 25.390625 -6.46875 L 25.390625 0 L 4.25 0 L 4.25 -15.171875 Z M 0.5625 -16.34375 "/></g></g></g><g fill="#3e3b34" fill-opacity="1"><g transform="translate(212.30252, 322.642283)"><g><path d="M 10.71875 -28.828125 L 1.921875 -28.828125 L 1.921875 -35.296875 L 26.40625 -35.296875 L 26.40625 -28.828125 L 17.296875 -28.828125 L 17.296875 0 L 10.71875 0 Z M 10.71875 -28.828125 "/></g></g></g><g fill="#3e3b34" fill-opacity="1"><g transform="translate(240.624176, 322.642283)"><g><path d="M 0.5625 -16.34375 L 2.28125 -22 L 4.25 -21.390625 L 4.25 -35.40625 L 23.171875 -35.40625 L 23.171875 -29.390625 L 10.828125 -29.390625 L 10.828125 -19.78125 L 25.484375 -15.828125 L 23.765625 -10.0625 L 10.828125 -13.609375 L 10.828125 -6.46875 L 25.390625 -6.46875 L 25.390625 0 L 4.25 0 L 4.25 -15.171875 Z M 0.5625 -16.34375 "/></g></g></g></svg>