<svg xmlns="http://www.w3.org/2000/svg" xmlns:xlink="http://www.w3.org/1999/xlink" width="500" zoomAndPan="magnify" viewBox="0 0 375 374.999991" height="500" preserveAspectRatio="xMidYMid meet" version="1.0"><defs><g/><clipPath id="8b5542e38b"><path d="M 169 108 L 293.585938 108 L 293.585938 236 L 169 236 Z M 169 108 " clip-rule="nonzero"/></clipPath><clipPath id="c202cebd0c"><path d="M 81.335938 51 L 211 51 L 211 179 L 81.335938 179 Z M 81.335938 51 " clip-rule="nonzero"/></clipPath></defs><rect x="-37.5" width="450" fill="#ffffff" y="-37.499999" height="449.999989" fill-opacity="1"/><rect x="-37.5" width="450" fill="#ffffff" y="-37.499999" height="449.999989" fill-opacity="1"/><g clip-path="url(#8b5542e38b)"><path fill="#3e3b34" d="M 289.757812 112.746094 C 289.386719 111.277344 288.410156 110.039062 287.078125 109.324219 C 285.75 108.613281 284.175781 108.492188 282.75 108.992188 C 270.246094 113.386719 250.949219 116.214844 229.25 116.214844 C 223.972656 116.214844 218.886719 116.011719 213.957031 115.695312 C 211.410156 127.210938 207.335938 137.785156 202.132812 147.101562 C 202.386719 147.089844 202.628906 147.046875 202.882812 147.046875 C 209.625 147.046875 215.09375 146.484375 215.09375 151.027344 C 215.09375 155.570312 209.625 163.5 202.882812 163.5 C 198.957031 163.5 195.496094 162.226562 193.265625 160.285156 C 186.527344 168.652344 178.652344 175.25 169.980469 179.613281 C 179.757812 212.519531 202.613281 235.605469 229.25 235.605469 C 264.78125 235.605469 293.585938 194.523438 293.585938 143.851562 C 293.585938 132.917969 292.222656 122.457031 289.757812 112.746094 Z M 254.890625 208.8125 C 254.773438 209.296875 254.414062 209.691406 253.941406 209.84375 C 253.46875 210.003906 252.949219 209.902344 252.566406 209.582031 C 247.554688 205.371094 239.027344 202.574219 229.25 202.574219 C 219.46875 202.574219 210.941406 205.371094 205.929688 209.582031 C 205.550781 209.902344 205.027344 210 204.554688 209.84375 C 204.082031 209.6875 203.722656 209.296875 203.609375 208.8125 C 203.195312 207.046875 202.941406 205.226562 202.941406 203.332031 C 202.941406 188.800781 214.71875 177.023438 229.25 177.023438 C 243.78125 177.023438 255.558594 188.804688 255.558594 203.332031 C 255.558594 205.226562 255.304688 207.046875 254.890625 208.8125 Z M 255.613281 163.5 C 248.871094 163.5 243.40625 155.570312 243.40625 151.027344 C 243.40625 146.484375 248.871094 147.046875 255.613281 147.046875 C 262.355469 147.046875 267.824219 150.730469 267.824219 155.273438 C 267.824219 159.816406 262.355469 163.5 255.613281 163.5 Z M 255.613281 163.5 " fill-opacity="1" fill-rule="nonzero"/></g><g clip-path="url(#c202cebd0c)"><path fill="#3e3b34" d="M 210.011719 86.804688 C 210.011719 75.875 208.648438 65.417969 206.183594 55.707031 C 205.8125 54.238281 204.839844 52.996094 203.503906 52.28125 C 202.71875 51.859375 201.84375 51.644531 200.960938 51.644531 C 200.359375 51.644531 199.757812 51.746094 199.175781 51.949219 C 186.671875 56.34375 167.375 59.171875 145.675781 59.171875 C 123.972656 59.171875 104.679688 56.34375 92.175781 51.949219 C 91.597656 51.746094 90.996094 51.644531 90.394531 51.644531 C 89.515625 51.644531 88.636719 51.863281 87.84375 52.285156 C 86.515625 53 85.539062 54.242188 85.167969 55.707031 C 82.703125 65.417969 81.335938 75.875 81.335938 86.804688 C 81.335938 137.480469 110.140625 178.5625 145.675781 178.5625 C 181.210938 178.5625 210.011719 137.480469 210.011719 86.804688 Z M 107.101562 98.210938 C 107.101562 93.667969 112.566406 89.984375 119.308594 89.984375 C 126.054688 89.984375 131.519531 97.914062 131.519531 102.457031 C 131.519531 107 126.054688 106.4375 119.308594 106.4375 C 112.566406 106.4375 107.101562 102.753906 107.101562 98.210938 Z M 145.675781 161.214844 C 131.144531 161.214844 119.367188 149.433594 119.367188 134.90625 C 119.367188 133.011719 119.621094 131.191406 120.035156 129.425781 C 120.148438 128.941406 120.507812 128.550781 120.980469 128.394531 C 121.457031 128.238281 121.976562 128.335938 122.355469 128.65625 C 127.367188 132.867188 135.894531 135.664062 145.675781 135.664062 C 155.457031 135.664062 163.980469 132.867188 168.992188 128.65625 C 169.375 128.335938 169.894531 128.234375 170.367188 128.394531 C 170.839844 128.550781 171.199219 128.941406 171.316406 129.425781 C 171.730469 131.191406 171.984375 133.011719 171.984375 134.90625 C 171.984375 149.433594 160.207031 161.214844 145.675781 161.214844 Z M 159.832031 102.457031 C 159.832031 97.914062 165.296875 89.984375 172.039062 89.984375 C 178.785156 89.984375 184.25 93.667969 184.25 98.210938 C 184.25 102.753906 178.785156 106.4375 172.039062 106.4375 C 165.296875 106.4375 159.832031 107 159.832031 102.457031 Z M 159.832031 102.457031 " fill-opacity="1" fill-rule="nonzero"/></g><g fill="#3e3b34" fill-opacity="1"><g transform="translate(121.114537, 322.642283)"><g><path d="M 9.65625 -12.234375 L 9.65625 0 L 3.078125 0 L 3.078125 -35.40625 L 13.203125 -35.40625 C 15.460938 -35.40625 17.398438 -35.078125 19.015625 -34.421875 C 20.628906 -33.765625 21.957031 -32.894531 23 -31.8125 C 24.050781 -30.726562 24.828125 -29.535156 25.328125 -28.234375 C 25.835938 -26.941406 26.09375 -25.65625 26.09375 -24.375 C 26.09375 -23.226562 25.90625 -21.957031 25.53125 -20.5625 C 25.164062 -19.164062 24.519531 -17.832031 23.59375 -16.5625 C 22.664062 -15.300781 21.359375 -14.265625 19.671875 -13.453125 C 17.984375 -12.640625 15.828125 -12.234375 13.203125 -12.234375 Z M 9.65625 -18.65625 L 13.203125 -18.65625 C 15.359375 -18.65625 17.066406 -19.0625 18.328125 -19.875 C 19.597656 -20.6875 20.234375 -21.953125 20.234375 -23.671875 C 20.234375 -25.453125 19.597656 -26.753906 18.328125 -27.578125 C 17.066406 -28.410156 15.359375 -28.828125 13.203125 -28.828125 L 9.65625 -28.828125 Z M 9.65625 -18.65625 "/></g></g></g><g fill="#3e3b34" fill-opacity="1"><g transform="translate(148.47527, 322.642283)"><g><path d="M 3.03125 -35.40625 L 9.609375 -35.40625 L 9.609375 -6.46875 L 23.46875 -6.46875 L 23.46875 0 L 3.03125 0 Z M 3.03125 -35.40625 "/></g></g></g><g fill="#3e3b34" fill-opacity="1"><g transform="translate(172.346379, 322.642283)"><g><path d="M 24.421875 0 L 17.703125 0 L 17.703125 -12.5 L 9.109375 -12.5 L 9.109375 0 L 2.375 0 L 2.375 -26.40625 C 2.375 -28.59375 2.90625 -30.398438 3.96875 -31.828125 C 5.03125 -33.265625 6.40625 -34.351562 8.09375 -35.09375 C 9.78125 -35.84375 11.550781 -36.21875 13.40625 -36.21875 C 15.363281 -36.21875 17.175781 -35.851562 18.84375 -35.125 C 20.507812 -34.40625 21.851562 -33.316406 22.875 -31.859375 C 23.90625 -30.410156 24.421875 -28.59375 24.421875 -26.40625 Z M 9.109375 -19.125 L 17.703125 -19.0625 L 17.703125 -24.28125 C 17.703125 -27.957031 16.269531 -29.796875 13.40625 -29.796875 C 12.15625 -29.796875 11.125 -29.335938 10.3125 -28.421875 C 9.507812 -27.515625 9.109375 -26.117188 9.109375 -24.234375 Z M 9.109375 -19.125 "/></g></g></g><g fill="#3e3b34" fill-opacity="1"><g transform="translate(199.100218, 322.642283)"><g><path d="M 0 -35.359375 L 7.1875 -35.359375 L 14.359375 -23.71875 C 14.429688 -23.65625 14.515625 -23.625 14.609375 -23.625 C 14.710938 -23.625 14.78125 -23.65625 14.8125 -23.71875 L 21.953125 -35.359375 L 29.140625 -35.359375 L 17.90625 -16.1875 L 17.90625 0 L 11.03125 0 L 11.03125 -16.1875 Z M 0 -35.359375 "/></g></g></g><g fill="#3e3b34" fill-opacity="1"><g transform="translate(228.231057, 322.642283)"><g><path d="M 6.21875 -10.625 C 7.0625 -9.613281 7.972656 -8.753906 8.953125 -8.046875 C 9.929688 -7.335938 10.914062 -6.847656 11.90625 -6.578125 C 12.90625 -6.304688 13.816406 -6.328125 14.640625 -6.640625 C 15.460938 -6.960938 16.144531 -7.664062 16.6875 -8.75 L 2.78125 -27.359375 C 3.25 -29.316406 4.082031 -30.882812 5.28125 -32.0625 C 6.476562 -33.25 7.828125 -34.109375 9.328125 -34.640625 C 10.828125 -35.179688 12.253906 -35.453125 13.609375 -35.453125 C 14.890625 -35.453125 16.203125 -35.265625 17.546875 -34.890625 C 18.898438 -34.523438 20.175781 -33.960938 21.375 -33.203125 C 22.570312 -32.441406 23.539062 -31.472656 24.28125 -30.296875 L 19.71875 -26.8125 C 18.75 -27.820312 17.679688 -28.601562 16.515625 -29.15625 C 15.347656 -29.71875 14.21875 -29.894531 13.125 -29.6875 C 12.03125 -29.488281 11.09375 -28.710938 10.3125 -27.359375 L 24.171875 -8.75 C 24.273438 -7.976562 24.066406 -7.09375 23.546875 -6.09375 C 23.023438 -5.101562 22.265625 -4.144531 21.265625 -3.21875 C 20.273438 -2.289062 19.09375 -1.519531 17.71875 -0.90625 C 16.351562 -0.300781 14.863281 0 13.25 0 C 12.132812 0 10.96875 -0.148438 9.75 -0.453125 C 8.539062 -0.753906 7.28125 -1.332031 5.96875 -2.1875 C 4.65625 -3.050781 3.253906 -4.3125 1.765625 -5.96875 L 1.359375 -6.421875 Z M 6.21875 -10.625 "/></g></g></g></svg>